# AST/ASF file generated using VICON BodyLanguage
# -----------------------------------------------
:version 1.10
:name VICON
:units
  mass 1.0
  length 0.45
  angle deg
:documentation
   .ast/.asf automatically generated from VICON data using
   VICON BodyBuilder and BodyLanguage model FoxedUp or BRILLIANT.MOD
:root
   order TX TY TZ RX RY RZ
   axis XYZ
   position 0 0 0  
   orientation 0 0 0 
:bonedata
  begin
     id 1 
     name lhipjoint
     direction 0.541323 -0.757556 0.364798 
     length 2.47576 
     axis 0 0 0  XYZ
  end
  begin
     id 2 
     name lfemur
     direction 0.34202 -0.939693 0  
     length 7.46493  
     axis 0 0 20  XYZ
    dof rx ry rz
    limits (-160.0 20.0)
           (-70.0 70.0)
           (-60.0 70.0)
  end
  begin
     id 3 
     name ltibia
     direction 0.34202 -0.939693 0   
     length 7.73805   
     axis 0 0 20   XYZ
    dof rx
    limits (-10.0 170.0)
  end
  begin
     id 4 
     name lfoot
     direction 0.107174 -0.294458 0.949636   
     length 2.25864   
     axis -90 7.62852e-016 20   XYZ
    dof rx rz
    limits (-45.0 90.0)
           (-70.0 20.0)
  end
  begin
     id 5 
     name ltoes
     direction 1.53606e-011 -4.21934e-011 1   
     length 1.12451   
     axis -90 7.62852e-016 20   XYZ
    dof rx
    limits (-90.0 20.0)
  end
  begin
     id 6 
     name rhipjoint
     direction -0.524745 -0.766967 0.36933   
     length 2.44538  
     axis 0 0 0  XYZ 
  end
  begin
     id 7 
     name rfemur
     direction -0.34202 -0.939693 0   
     length 7.61604   
     axis 0 0 -20   XYZ
    dof rx ry rz
    limits (-160.0 20.0)
           (-70.0 70.0)
           (-70.0 60.0)
  end
  begin
     id 8 
     name rtibia
     direction -0.34202 -0.939693 0   
     length 7.61056   
     axis 0 0 -20   XYZ
    dof rx
    limits (-10.0 170.0)
 end
 begin
     id 9 
     name rfoot
     direction -0.12616 -0.346623 0.929482   
     length 2.46372  
     axis -90 -7.62852e-016 -20   XYZ
    dof rx rz
    limits (-45.0 90.0)
           (-20.0 70.0)
  end
  begin
     id 10 
     name rtoes
     direction -1.53531e-011 -4.22004e-011 1   
     length 1.21611   
     axis -90 -7.62852e-016 -20   XYZ
    dof rx
    limits (-90.0 20.0)
  end
  begin
     id 11 
     name lowerback
     direction -0.000778023 0.997293 -0.0735223   
     length 2.06139   
     axis 0 0 0   XYZ
    dof rx ry rz
    limits (-20.0 45.0)
           (-30.0 30.0)
           (-30.0 30.0)
  end
  begin
     id 12 
     name upperback
     direction 0.0222598 0.999722 -0.0078355   
     length 2.06383   
     axis 0 0 0   XYZ
    dof rx ry rz
    limits (-20.0 45.0)
           (-30.0 30.0)
           (-30.0 30.0)
  end
  begin
     id 13 
     name thorax
     direction 0.0219654 0.999405 0.0265994   
     length 2.07163   
     axis 0 0 0   XYZ
    dof rx ry rz
    limits (-20.0 45.0)
           (-30.0 30.0)
           (-30.0 30.0)
  end
  begin
     id 14 
     name lowerneck
     direction 0.0213282 0.988147 0.15202   
     length 1.75969   
     axis 0 0 0   XYZ
    dof rx ry rz
    limits (-20.0 45.0)
           (-30.0 30.0)
           (-30.0 30.0)
  end
  begin
     id 15 
     name upperneck
     direction -0.0546456 0.982624 -0.177379   
     length 1.79244   
     axis 0 0 0   XYZ
    dof rx ry rz
    limits (-20.0 45.0)
           (-30.0 30.0)
           (-30.0 30.0)
  end
  begin
     id 16
     name head
     direction -0.0199987 0.996855 -0.076686  
     length 1.80555  
     axis 0 0 0   XYZ
    dof rx ry rz
    limits (-20.0 45.0)
           (-30.0 30.0)
           (-30.0 30.0)
  end
  begin
     id 17 
     name lclavicle
     direction 0.929565 0.363219 -0.063096  
     length 3.55722  
     axis 0 0 0   XYZ
    dof ry rz
    limits (-20.0 10.0)
           (0.0 20.0)
  end
  begin
     id 18 
     name lhumerus
     direction 1 -4.48993e-011 -2.36203e-027   
     length 4.92785   
     axis 180 -30 -90   XYZ
    dof rx ry rz
    limits (-60.0 90.0)
           (-90.0 90.0)
           (-90.0 90.0)
  end
  begin
     id 19
     name lradius
     direction 1 -4.48947e-011 2.02997e-027   
     length 3.44052   
     axis 180 -30 -90   XYZ
    dof rx
    limits (-10.0 170.0)
  end
  begin
     id 20
     name lwrist
     direction 1 -4.48962e-011 1.45991e-027   
     length 1.72026   
     axis 1.49639e-024 90 90   XYZ
    dof ry
    limits (-180.0 0.0)
 end
  begin
     id 21 
     name lhand
     direction 1 -4.48984e-011 2.91906e-027   
     length 0.654326   
     axis -1.863e-015 90 90   XYZ
    dof rx rz
    limits (-90.0 90.0)
           (-45.0 45.0)
  end
  begin
     id 22 
     name lfingers
     direction 1 -4.48961e-011 5.83968e-027   
     length 0.527534   
     axis -3.72598e-015 90 90   XYZ
    dof rx
    limits (0.0 90.0)
  end
  begin
     id 23
     name lthumb
     direction 0.707107 -6.34963e-011 0.707107   
     length 0.757437   
     axis -90 45 -6.68868e-015   XYZ
    dof rx rz
    limits (-45.0 45.0)
           (-45.0 45.0)
  end
  begin
     id 24 
     name rclavicle
     direction -0.902944 0.422599 -0.0781198   
     length 3.54432  
     axis 0 0 0   XYZ 
    dof ry rz
    limits (-10.0 20.0)
           (-20.0 0.0)
  end
  begin
     id 25 
     name rhumerus
     direction -1 -4.48953e-011 -4.75835e-028  
     length 5.09181   
     axis 180 30 90   XYZ
    dof rx ry rz
    limits (-90.0 60.0)
           (-90.0 90.0)
           (-90.0 90.0)
  end
  begin
     id 26 
     name rradius
     direction -1 -4.48986e-011 -3.25889e-027   
     length 3.49865   
     axis 180 30 90   XYZ
    dof rx
    limits (-10.0 170.0)
  end
  begin
     id 27 
     name rwrist
     direction -1 -4.48963e-011 1.45989e-027   
     length 1.74933   
     axis 1.49639e-024 -90 -90   XYZ
    dof ry
    limits (-180.0 0.0)
  end
  begin
     id 28
     name rhand
     direction -1 -4.49003e-011 2.91844e-027   
     length 0.66641   
     axis -1.863e-015 -90 -90   XYZ
    dof rx rz
    limits (-90.0 90.0)
           (-45.0 45.0)
  end
  begin
     id 29
     name rfingers
     direction -1 -4.48973e-011 5.83886e-027   
     length 0.537277   
     axis -3.72598e-015 -90 -90   XYZ
    dof rx
    limits (0.0 90.0)
  end
  begin
     id 30
     name rthumb
     direction -0.707107 -6.34976e-011 0.707107   
     length 0.771425   
     axis -90 -45 6.68868e-015   XYZ
    dof rx rz
    limits (-45.0 45.0)
           (-45.0 45.0)
  end
:hierarchy
  begin
    root lhipjoint rhipjoint lowerback
    lhipjoint lfemur
    lfemur ltibia
    ltibia lfoot
    lfoot ltoes
    rhipjoint rfemur
    rfemur rtibia
    rtibia rfoot
    rfoot rtoes
    lowerback upperback
    upperback thorax
    thorax lowerneck lclavicle rclavicle
    lowerneck upperneck
    upperneck head
    lclavicle lhumerus
    lhumerus lradius
    lradius lwrist
    lwrist lhand lthumb
    lhand lfingers
    rclavicle rhumerus
    rhumerus rradius
    rradius rwrist
    rwrist rhand rthumb
    rhand rfingers
  end

#!OML:ASF H:\LiuWeirdWalks\Patient Classification 1\Patient 1\Session 1\male.ASF
:FULLY-SPECIFIED
:DEGREES
95
root 0.927598 17.9671 -31.6878 3.53206 3.22043 -3.39766
lowerback 1.08589 1.07769 2.15329
upperback -2.55177 1.54953 1.74852
thorax -3.22322 0.743228 0.531696
lowerneck -19.1816 0.0963353 7.16423
upperneck 23.3484 -0.457864 -6.15101
head 10.6372 -0.327341 -3.49234
rclavicle 6.13126e-015 1.15295e-014
rhumerus -36.8523 -18.3161 -72.5311
rradius 26.5914
rwrist -3.36577
rhand -17.0654 -3.59232
rfingers 7.12502
rthumb 9.17219 -33.3728
lclavicle 6.13126e-015 1.15295e-014
lhumerus -36.932 2.81143 84.8211
lradius 26.7364
lwrist 7.38355
lhand -12.8584 0.408315
lfingers 7.12502
lthumb 13.2297 29.9685
rfemur -6.2543 -2.84431 21.2351
rtibia 25.0785
rfoot -13.4989 -22.4317
rtoes -3.62978
lfemur -8.73271 -2.67209 -17.0674
ltibia 26.836
lfoot -13.0941 14.5854
ltoes -7.89049
96
root 0.938605 17.9661 -31.6855 3.55019 3.20739 -3.39017
lowerback 1.05334 0.881 2.02538
upperback -2.53299 1.28801 1.9654
thorax -3.1948 0.619342 0.836863
lowerneck -19.1775 0.399786 7.16043
upperneck 23.3322 0.0510393 -6.44526
head 10.6702 -0.131316 -3.52679
rclavicle -1.25514e-014 -1.11319e-014
rhumerus -36.5697 -17.5911 -72.5792
rradius 26.5679
rwrist -3.46952
rhand -17.0427 -3.56735
rfingers 7.12502
rthumb 9.19412 -33.3469
lclavicle -1.25514e-014 -1.11319e-014
lhumerus -36.9718 3.50975 84.8705
lradius 26.7972
lwrist 7.31638
lhand -12.8612 0.34384
lfingers 7.12502
lthumb 13.227 29.9042
rfemur -6.27379 -2.83088 21.1898
rtibia 25.1013
rfoot -13.5097 -22.438
rtoes -3.63688
lfemur -8.73945 -2.68643 -17.1171
ltibia 26.8361
lfoot -13.0959 14.6172
ltoes -7.85642
97
root 0.949923 17.9652 -31.6838 3.57816 3.18719 -3.37435
lowerback 1.01309 0.697737 1.90173
upperback -2.50943 1.04348 2.16208
thorax -3.15362 0.503478 1.11829
lowerneck -19.1777 0.684171 7.15827
upperneck 23.2996 0.525452 -6.71542
head 10.697 0.0518116 -3.55681
rclavicle -6.31763e-015 -3.37934e-014
rhumerus -36.294 -16.9317 -72.6219
rradius 26.5449
rwrist -3.55246
rhand -17.0041 -3.52223
rfingers 7.12502
rthumb 9.23135 -33.3001
lclavicle -6.31763e-015 -3.37934e-014
lhumerus -36.9907 4.15053 84.9161
lradius 26.8685
lwrist 7.25845
lhand -12.8669 0.340459
lfingers 7.12502
lthumb 13.2215 29.9012
rfemur -6.31206 -2.82018 21.133
rtibia 25.134
rfoot -13.5259 -22.4363
rtoes -3.6337
lfemur -8.75964 -2.69084 -17.1772
ltibia 26.8376
lfoot -13.0948 14.6447
ltoes -7.81412
98
root 0.961309 17.9643 -31.6822 3.61445 3.17374 -3.35793
lowerback 0.978909 0.612329 1.83378
upperback -2.4851 0.92811 2.24793
thorax -3.11103 0.449008 1.24942
lowerneck -19.1933 0.800249 7.13668
upperneck 23.2663 0.722987 -6.82259
head 10.7044 0.126441 -3.56333
rclavicle 8.55395e-015 1.35174e-014
rhumerus -36.1493 -16.643 -72.6344
rradius 26.5621
rwrist -3.62269
rhand -16.967 -3.48124
rfingers 7.12502
rthumb 9.26718 -33.2576
lclavicle 8.55395e-015 1.35174e-014
lhumerus -36.9309 4.37497 84.9779
lradius 26.9287
lwrist 7.276
lhand -12.8774 0.391268
lfingers 7.12502
lthumb 13.2113 29.9526
rfemur -6.36104 -2.80599 21.0778
rtibia 25.1692
rfoot -13.5362 -22.4451
rtoes -3.63592
lfemur -8.79451 -2.6766 -17.2346
ltibia 26.8429
lfoot -13.0978 14.6484
ltoes -7.76801
99
root 0.972865 17.9634 -31.6797 3.64914 3.15291 -3.34617
lowerback 0.984583 0.672311 1.84929
upperback -2.48016 1.00667 2.17698
thorax -3.10817 0.486864 1.16477
lowerneck -19.2427 0.676181 7.08509
upperneck 23.3142 0.527086 -6.69313
head 10.7148 0.0479032 -3.53722
rclavicle 7.84578e-015 1.90833e-014
rhumerus -36.2275 -16.8987 -72.5855
rradius 26.6216
rwrist -3.63768
rhand -16.9287 -3.42963
rfingers 7.12502
rthumb 9.3041 -33.2043
lclavicle 7.84578e-015 1.90833e-014
lhumerus -36.8084 4.00826 85.0553
lradius 26.9769
lwrist 7.37003
lhand -12.8873 0.459699
lfingers 7.12502
lthumb 13.2019 30.0217
rfemur -6.40497 -2.77651 21.0288
rtibia 25.2026
rfoot -13.5479 -22.4626
rtoes -3.63517
lfemur -8.82675 -2.64342 -17.2858
ltibia 26.8545
lfoot -13.1149 14.6415
ltoes -7.7216
